<?xml version="1.0"?>
<svg version="1.1" xmlns="http://www.w3.org/2000/svg" width="400px" height="157px" style=""><path fill="#ff0000" d="M17.11474609375,66.5048828125q0-1.62939453125,0.398681640625-2.374755859375t1.14404296875-1.0400390625t1.802734375-0.225341796875t2.478759765625,0.0693359375q3.60546875,0,7.2802734375,1.109375t6.62158203125,3.241455078125t4.74951171875,5.252197265625t1.802734375,7.17626953125q0,2.7041015625-0.780029296875,5.113525390625t-2.201416015625,4.5068359375t-3.328125,3.830810546875t-4.19482421875,3.01611328125q0.93603515625,0.93603515625,2.4267578125,3.310791015625t2.94677734375,5.0615234375t2.582763671875,5.217529296875t1.334716796875,3.8134765625l-0.416015625,0.6240234375q-0.93603515625,0.5546875-2.25341796875,0.58935546875q-0.6240234375,0-1.62939453125-0.156005859375t-1.28271484375-0.918701171875q-1.42138671875-3.98681640625-3.102783203125-8.21630859375t-4.142822265625-7.626953125l0-0.0693359375q-0.86669921875,0.3466796875-1.716064453125,0.676025390625t-1.716064453125,0.606689453125q0.27734375,3.84814453125,0.572021484375,7.574951171875t0.294677734375,7.540283203125q0,0.4853515625-0.468017578125,0.780029296875t-1.057373046875,0.468017578125t-1.196044921875,0.24267578125t-0.988037109375,0.0693359375q-0.3466796875,0-0.988037109375-0.0693359375t-1.230712890625-0.24267578125t-1.022705078125-0.502685546875t-0.433349609375-0.884033203125q0-3.84814453125-0.17333984375-7.678955078125t-0.38134765625-7.644287109375q-1.07470703125-0.693359375-1.07470703125-1.802734375q0-0.86669921875,0.83203125-1.1787109375q-0.416015625-7.31494140625-0.953369140625-14.59521484375t-0.537353515625-14.66455078125z M23.3896484375,65.43017578125q0.4853515625,7.52294921875,1.092041015625,14.87255859375t1.161376953125,14.87255859375q2.4267578125-0.693359375,4.524169921875-2.409423828125t3.622802734375-3.865478515625t2.374755859375-4.68017578125t0.849365234375-5.02685546875q0-2.7734375-1.109375-5.321533203125t-2.94677734375-4.454833984375q-1.8720703125-1.90673828125-4.298828125-2.9814453125q-2.1494140625-0.93603515625-4.5068359375-0.93603515625l-0.6240234375,0z M50.488559570313,101.06884765625q0-2.357421875,0.641357421875-4.54150390625t1.924072265625-3.900146484375t3.206787109375-2.73876953125t4.454833984375-1.022705078125q1.56005859375,0,3.449462890625,0.468017578125t3.553466796875,1.38671875t2.7734375,2.340087890625t1.109375,3.2587890625q0,0.86669921875-0.294677734375,1.3173828125t-1.196044921875,0.45068359375l-0.38134765625-0.0693359375q1.00537109375,2.7041015625,1.7333984375,5.546875t1.42138671875,5.685546875q0.27734375,0.5546875,0.416015625,0.988037109375t0.138671875,0.849365234375q0,0.5546875-0.31201171875,0.918701171875t-0.814697265625,0.537353515625t-1.0400390625,0.24267578125t-0.953369140625,0.0693359375q-1.49072265625,0-2.236083984375-0.52001953125t-1.07470703125-1.42138671875t-0.398681640625-2.028076171875t-0.27734375-2.270751953125q-0.416015625,1.35205078125-1.092041015625,2.634765625t-1.5947265625,2.305419921875t-2.166748046875,1.62939453125t-2.80810546875,0.606689453125q-2.2880859375,0-3.84814453125-1.3173828125t-2.513427734375-3.241455078125t-1.38671875-4.108154296875t-0.433349609375-4.05615234375z M55.411411132813,100.58349609375q0,1.28271484375,0.17333984375,2.7041015625t0.572021484375,2.80810546875t1.022705078125,2.617431640625t1.56005859375,2.166748046875q1.69873046875-1.83740234375,2.513427734375-4.47216796875t1.4560546875-5.078857421875t1.4560546875-4.19482421875t2.513427734375-1.750732421875q1.07470703125,0,1.802734375,0.38134765625q-0.3466796875-0.86669921875-1.14404296875-1.681396484375t-1.785400390625-1.49072265625t-2.04541015625-1.109375t-1.993408203125-0.433349609375q-0.27734375,0-0.641357421875,0.086669921875t-0.572021484375,0.017333984375q-1.42138671875,0.416015625-2.340087890625,1.438720703125t-1.49072265625,2.409423828125t-0.814697265625,2.8427734375t-0.24267578125,2.73876953125z M80.534248046875,100.65283203125q0-2.7041015625,0.572021484375-4.905517578125t1.820068359375-3.726806640625t3.276123046875-2.374755859375t4.940185546875-0.849365234375q1.62939453125,0,3.328125,0.433349609375t2.912109375,1.612060546875q0-0.693359375,0.138671875-2.860107421875t0.3466796875-5.044189453125t0.433349609375-6.0322265625t0.398681640625-5.85888671875t0.31201171875-4.54150390625t0.2080078125-2.080078125q0.3466796875-1.00537109375,1.28271484375-1.196044921875t1.76806640625-0.190673828125q2.18408203125,0,2.686767578125,0.693359375t0.502685546875,2.7734375q0,7.59228515625-0.676025390625,15.115234375t-0.676025390625,15.115234375q0,4.88818359375,0.190673828125,9.828369140625t1.369384765625,9.724365234375l0.38134765625,0.3466796875l0.2080078125,0.6240234375l-0.52001953125,0.79736328125q-1.3173828125,0.83203125-3.05078125,0.83203125l-0.138671875,0q-1.76806640625,0-3.2587890625-0.83203125q-0.5546875-0.3466796875-0.918701171875-2.062744140625t-0.572021484375-3.77880859375t-0.31201171875-3.969482421875t-0.17333984375-2.7041015625q-1.21337890625,2.7734375-3.310791015625,4.766845703125t-5.286865234375,1.993408203125q-2.49609375,0-4.0908203125-1.07470703125t-2.478759765625-2.73876953125t-1.248046875-3.726806640625t-0.364013671875-4.108154296875z M84.729072265625,100.86083984375q0,0.79736328125,0.190673828125,2.357421875t0.606689453125,3.1201171875t1.161376953125,2.7734375t1.958740234375,1.21337890625q1.62939453125-0.79736328125,2.94677734375-2.652099609375t2.270751953125-4.0908203125t1.49072265625-4.47216796875t0.537353515625-3.865478515625q0-2.04541015625-1.49072265625-3.3974609375t-3.57080078125-1.35205078125q-0.6240234375,0-1.265380859375,0.24267578125t-1.196044921875,0.5546875q-1.28271484375,1.21337890625-1.993408203125,2.201416015625t-1.07470703125,2.04541015625t-0.468017578125,2.340087890625t-0.10400390625,2.9814453125z M113.35337402344,100.23681640625q0-3.189453125,0.745361328125-6.257568359375t1.265380859375-6.118896484375q0.138671875-0.79736328125,1.092041015625-0.988037109375t1.612060546875-0.190673828125q1.14404296875,0,1.83740234375,0.3466796875q0.27734375,0.138671875,0.52001953125,0.31201171875t0.24267578125,0.45068359375q0,2.9814453125-0.710693359375,5.82421875t-0.710693359375,6.0322265625q0,1.07470703125,0.156005859375,2.028076171875t0.294677734375,1.889404296875l0.2080078125,1.00537109375q0,0.27734375,0.03466796875,0.4853515625t0.10400390625,0.4853515625q0,0.6240234375-0.884033203125,0.849365234375t-1.542724609375,0.225341796875q-1.00537109375,0-1.854736328125-0.398681640625t-1.334716796875-1.369384765625l-0.4853515625-1.00537109375q-0.416015625-0.79736328125-0.416015625-1.785400390625t-0.17333984375-1.820068359375z M115.57212402344,79.36669921875l0-0.65869140625q0-1.62939453125,0.814697265625-2.912109375t2.444091796875-1.28271484375q0.2080078125,0,0.398681640625,0.03466796875t0.398681640625,0.03466796875q0.416015625,0.0693359375,1.092041015625,0.329345703125t0.676025390625,0.814697265625l0,0.0693359375q-0.138671875,0.27734375-0.17333984375,0.572021484375t-0.17333984375,0.502685546875l0.0693359375-0.0693359375q-0.416015625,1.07470703125-0.676025390625,1.7333984375t-0.572021484375,1.057373046875t-0.780029296875,0.572021484375t-1.334716796875,0.17333984375q-0.138671875,0-0.4853515625-0.03466796875t-0.745361328125-0.138671875t-0.676025390625-0.27734375t-0.27734375-0.52001953125z M128.4918359375,101.06884765625q0-2.357421875,0.641357421875-4.54150390625t1.924072265625-3.900146484375t3.206787109375-2.73876953125t4.454833984375-1.022705078125q1.56005859375,0,3.449462890625,0.468017578125t3.553466796875,1.38671875t2.7734375,2.340087890625t1.109375,3.2587890625q0,0.86669921875-0.294677734375,1.3173828125t-1.196044921875,0.45068359375l-0.38134765625-0.0693359375q1.00537109375,2.7041015625,1.7333984375,5.546875t1.42138671875,5.685546875q0.27734375,0.5546875,0.416015625,0.988037109375t0.138671875,0.849365234375q0,0.5546875-0.31201171875,0.918701171875t-0.814697265625,0.537353515625t-1.0400390625,0.24267578125t-0.953369140625,0.0693359375q-1.49072265625,0-2.236083984375-0.52001953125t-1.07470703125-1.42138671875t-0.398681640625-2.028076171875t-0.27734375-2.270751953125q-0.416015625,1.35205078125-1.092041015625,2.634765625t-1.5947265625,2.305419921875t-2.166748046875,1.62939453125t-2.80810546875,0.606689453125q-2.2880859375,0-3.84814453125-1.3173828125t-2.513427734375-3.241455078125t-1.38671875-4.108154296875t-0.433349609375-4.05615234375z M133.4146875,100.58349609375q0,1.28271484375,0.17333984375,2.7041015625t0.572021484375,2.80810546875t1.022705078125,2.617431640625t1.56005859375,2.166748046875q1.69873046875-1.83740234375,2.513427734375-4.47216796875t1.4560546875-5.078857421875t1.4560546875-4.19482421875t2.513427734375-1.750732421875q1.07470703125,0,1.802734375,0.38134765625q-0.3466796875-0.86669921875-1.14404296875-1.681396484375t-1.785400390625-1.49072265625t-2.04541015625-1.109375t-1.993408203125-0.433349609375q-0.27734375,0-0.641357421875,0.086669921875t-0.572021484375,0.017333984375q-1.42138671875,0.416015625-2.340087890625,1.438720703125t-1.49072265625,2.409423828125t-0.814697265625,2.8427734375t-0.24267578125,2.73876953125z M158.57219238281,101.2421875l0-1.00537109375q0-1.248046875,0.0693359375-2.357421875q0.0693359375-1.56005859375,0.0693359375-2.5654296875q0-0.5546875,0.0693359375-1.265380859375t0.3466796875-1.126708984375q0.3466796875-0.3466796875,0.814697265625-0.710693359375t1.022705078125-0.364013671875q1.76806640625,0,2.7734375,0.398681640625t1.07470703125,1.646728515625l0.138671875,1.07470703125q0.6240234375-1.49072265625,1.6640625-3.692138671875t2.409423828125-4.19482421875t3.08544921875-3.3974609375t3.622802734375-1.404052734375q1.76806640625,0,2.912109375,1.6640625t1.820068359375,4.246826171875t0.953369140625,5.7548828125t0.38134765625,6.222900390625t0.138671875,5.564208984375t0.24267578125,3.796142578125q0.138671875,1.07470703125,0.468017578125,2.270751953125t0.329345703125,2.201416015625q0,0.27734375-0.398681640625,0.537353515625t-0.849365234375,0.433349609375t-0.918701171875,0.27734375t-0.676025390625,0.10400390625q-1.35205078125,0-1.924072265625-2.028076171875t-0.710693359375-5.078857421875t-0.138671875-6.604248046875t-0.24267578125-6.604248046875t-0.988037109375-5.078857421875t-2.374755859375-2.097412109375q-1.49072265625,0-3.08544921875,1.924072265625t-2.73876953125,5.113525390625q-1.109375,3.189453125-1.525390625,7.24560546875q-0.138671875,1.28271484375-0.138671875,2.5654296875q0,2.80810546875,0.58935546875,5.6162109375q0.0693359375,0.4853515625-0.398681640625,0.72802734375t-1.161376953125,0.38134765625t-1.404052734375,0.17333984375t-1.092041015625,0.03466796875q-1.35205078125,0-2.166748046875-0.953369140625t-1.265380859375-2.444091796875t-0.606689453125-3.345458984375t-0.190673828125-3.657470703125z M188.65254882813,79.0546875q0-0.4853515625,1.0400390625-0.83203125t2.357421875-0.572021484375t2.548095703125-0.329345703125t1.681396484375-0.17333984375q0-0.93603515625,0.0693359375-1.889404296875t0.38134765625-1.69873046875t0.988037109375-1.196044921875t1.889404296875-0.45068359375q1.00537109375,0,1.525390625,0.24267578125t1.109375,1.00537109375q0.138671875,0.416015625,0.138671875,0.79736328125l0,1.161376953125t-0.0693359375,1.196044921875q1.28271484375-0.138671875,2.548095703125-0.329345703125t2.548095703125-0.190673828125q0.93603515625,0,1.28271484375,0.03466796875t0.693359375,0.83203125q0.27734375,0.79736328125-0.676025390625,1.21337890625t-2.2880859375,0.6240234375t-2.652099609375,0.31201171875t-1.5947265625,0.10400390625q-0.416015625,5.962890625-0.849365234375,11.82177734375t-0.433349609375,11.89111328125q0,2.7041015625,0.17333984375,5.58154296875t0.970703125,5.44287109375q0.2080078125,0.79736328125,0.693359375,1.49072265625t0.4853515625,1.49072265625q0,0.4853515625-0.38134765625,0.7626953125t-0.918701171875,0.468017578125t-1.07470703125,0.225341796875t-0.884033203125,0.03466796875q-2.18408203125,0-3.328125-1.62939453125t-1.646728515625-3.900146484375t-0.537353515625-4.662841796875t-0.03466796875-3.8828125q0-3.05078125,0.121337890625-6.240234375t0.294677734375-6.3095703125t0.4853515625-6.1015625t0.72802734375-5.546875q-1.21337890625,0.138671875-2.374755859375,0.31201171875t-2.374755859375,0.17333984375q-0.27734375,0-0.745361328125-0.03466796875t-0.884033203125-0.17333984375t-0.710693359375-0.38134765625t-0.294677734375-0.693359375z"/><path fill="#7cb5de" d="M224.11474609375,66.5048828125q0-1.62939453125,0.398681640625-2.374755859375t1.14404296875-1.0400390625t1.802734375-0.225341796875t2.478759765625,0.0693359375q3.60546875,0,7.2802734375,1.109375t6.62158203125,3.241455078125t4.74951171875,5.252197265625t1.802734375,7.17626953125q0,2.7041015625-0.780029296875,5.113525390625t-2.201416015625,4.5068359375t-3.328125,3.830810546875t-4.19482421875,3.01611328125q0.93603515625,0.93603515625,2.4267578125,3.310791015625t2.94677734375,5.0615234375t2.582763671875,5.217529296875t1.334716796875,3.8134765625l-0.416015625,0.6240234375q-0.93603515625,0.5546875-2.25341796875,0.58935546875q-0.6240234375,0-1.62939453125-0.156005859375t-1.28271484375-0.918701171875q-1.42138671875-3.98681640625-3.102783203125-8.21630859375t-4.142822265625-7.626953125l0-0.0693359375q-0.86669921875,0.3466796875-1.716064453125,0.676025390625t-1.716064453125,0.606689453125q0.27734375,3.84814453125,0.572021484375,7.574951171875t0.294677734375,7.540283203125q0,0.4853515625-0.468017578125,0.780029296875t-1.057373046875,0.468017578125t-1.196044921875,0.24267578125t-0.988037109375,0.0693359375q-0.3466796875,0-0.988037109375-0.0693359375t-1.230712890625-0.24267578125t-1.022705078125-0.502685546875t-0.433349609375-0.884033203125q0-3.84814453125-0.17333984375-7.678955078125t-0.38134765625-7.644287109375q-1.07470703125-0.693359375-1.07470703125-1.802734375q0-0.86669921875,0.83203125-1.1787109375q-0.416015625-7.31494140625-0.953369140625-14.59521484375t-0.537353515625-14.66455078125z M230.3896484375,65.43017578125q0.4853515625,7.52294921875,1.092041015625,14.87255859375t1.161376953125,14.87255859375q2.4267578125-0.693359375,4.524169921875-2.409423828125t3.622802734375-3.865478515625t2.374755859375-4.68017578125t0.849365234375-5.02685546875q0-2.7734375-1.109375-5.321533203125t-2.94677734375-4.454833984375q-1.8720703125-1.90673828125-4.298828125-2.9814453125q-2.1494140625-0.93603515625-4.5068359375-0.93603515625l-0.6240234375,0z M256.06717285156,98.01806640625q0-0.693359375,0.156005859375-1.83740234375t0.364013671875-2.270751953125t0.4853515625-2.097412109375t0.65869140625-1.248046875q0.27734375-0.27734375,0.953369140625-0.5546875t1.42138671875-0.398681640625t1.38671875,0.10400390625t0.780029296875,0.918701171875q-0.4853515625,0.6240234375-0.884033203125,2.132080078125t-0.606689453125,3.345458984375q-0.17333984375,1.56005859375-0.17333984375,3.22412109375l0,0.58935546875q0.03466796875,1.94140625,0.3466796875,3.57080078125t0.953369140625,2.686767578125t1.785400390625,1.057373046875q2.4267578125,0,4.4375-2.236083984375t3.57080078125-5.460205078125t2.73876953125-6.846923828125t2.0107421875-6.326904296875q0.2080078125-0.79736328125,0.988037109375-1.07470703125t1.681396484375-0.190673828125t1.612060546875,0.433349609375t0.849365234375,0.83203125q-0.693359375,5.82421875-1.092041015625,11.6484375t-0.398681640625,11.7177734375q0,1.14404296875,0.10400390625,2.097412109375t-0.10400390625,1.62939453125t-0.918701171875,1.07470703125t-2.270751953125,0.398681640625q-0.3466796875,0-0.884033203125-0.0693359375t-1.109375-0.225341796875t-0.970703125-0.468017578125t-0.398681640625-0.72802734375q0-2.5654296875,0.190673828125-5.26953125t0.537353515625-5.23486328125q-0.93603515625,1.35205078125-2.062744140625,2.686767578125t-2.478759765625,2.409423828125t-2.912109375,1.716064453125t-3.36279296875,0.641357421875q-2.5654296875,0-4.038818359375-1.21337890625t-2.21875-3.033447265625t-0.93603515625-3.969482421875t-0.190673828125-4.16015625z M288.7649609375,92.384521484375q-0.086669921875-1.161376953125,0.138671875-2.132080078125t0.9013671875-1.577392578125t2.166748046875-0.606689453125q0.3466796875,0,0.849365234375,0.086669921875t0.988037109375,0.225341796875t0.814697265625,0.416015625t0.329345703125,0.7626953125l0,3.91748046875q1.35205078125-1.56005859375,2.94677734375-2.236083984375t3.64013671875-0.676025390625q1.56005859375,0,3.08544921875,0.710693359375t2.87744140625,1.889404296875t2.340087890625,2.60009765625t1.438720703125,2.8427734375q0.27734375-1.28271484375,0.6240234375-3.137451171875t1.022705078125-3.553466796875t1.785400390625-2.912109375t2.94677734375-1.21337890625q1.97607421875,0,3.328125,1.42138671875t2.201416015625,3.692138671875t1.28271484375,5.078857421875t0.641357421875,5.546875t0.2080078125,5.113525390625l0,3.726806640625q0,0.416015625-0.31201171875,0.676025390625t-0.780029296875,0.398681640625t-0.970703125,0.17333984375t-0.780029296875,0.03466796875q-1.07470703125,0-1.958740234375-0.329345703125t-0.884033203125-1.681396484375l0-3.1201171875t-0.0693359375-4.038818359375t-0.24267578125-4.33349609375t-0.45068359375-3.934814453125t-0.710693359375-2.8427734375t-1.057373046875-1.109375q-0.86669921875,0-1.248046875,0.970703125t-0.641357421875,2.46142578125t-0.398681640625,3.15478515625t-0.38134765625,3.15478515625t-0.780029296875,2.444091796875t-1.473388671875,0.953369140625q-1.00537109375,0-1.76806640625-0.953369140625t-1.508056640625-2.374755859375t-1.49072265625-3.05078125t-1.646728515625-3.05078125q-0.9013671875-1.4560546875-1.94140625-2.357421875q-0.93603515625-0.86669921875-2.11474609375-0.83203125l-0.17333984375,0q-1.56005859375,0.0693359375-2.444091796875,1.126708984375t-1.35205078125,2.582763671875t-0.572021484375,3.276123046875t-0.10400390625,3.068115234375q0,1.248046875,0.2080078125,2.912109375q0.138671875,1.109375,0.138671875,2.11474609375q0,0.52001953125-0.03466796875,1.00537109375q-0.10400390625,1.4560546875-0.780029296875,2.444091796875t-2.513427734375,0.988037109375q-0.693359375,0-1.7333984375-0.138671875t-1.38671875-0.93603515625q-0.79736328125-1.42138671875-1.21337890625-3.588134765625t-0.6240234375-4.47216796875t-0.24267578125-4.576171875t-0.03466796875-3.900146484375q0-1.14404296875-0.086669921875-2.305419921875z M332.48716308594,90.98046875q0-2.4267578125,0.225341796875-6.3095703125t0.537353515625-8.00830078125t0.780029296875-7.817626953125t1.022705078125-5.668212890625q0.2080078125-0.86669921875,0.988037109375-1.0400390625t1.577392578125-0.17333984375q1.07470703125,0,1.854736328125,0.38134765625t0.780029296875,1.6640625q0,6.3095703125-0.780029296875,12.636474609375t-0.849365234375,12.636474609375q1.07470703125-1.62939453125,2.7734375-2.444091796875t3.60546875-0.814697265625q2.634765625,0,4.54150390625,1.07470703125t3.08544921875,2.7734375t1.750732421875,3.934814453125t0.572021484375,4.558837890625q0,1.28271484375-0.260009765625,3.206787109375t-0.780029296875,4.05615234375t-1.3173828125,4.2294921875t-1.889404296875,3.761474609375t-2.513427734375,2.686767578125t-3.1201171875,1.022705078125q-0.3466796875,0-0.918701171875-0.10400390625t-1.14404296875-0.31201171875t-0.953369140625-0.537353515625t-0.38134765625-0.814697265625q0-0.5546875,0.676025390625-0.780029296875t1.092041015625-0.225341796875q1.56005859375-0.693359375,2.7734375-2.894775390625t2.028076171875-4.836181640625t1.230712890625-5.217529296875t0.416015625-4.212158203125q0-0.93603515625-0.27734375-2.49609375t-0.849365234375-3.08544921875t-1.56005859375-2.634765625t-2.340087890625-1.109375q-1.62939453125,0-2.60009765625,1.681396484375t-1.525390625,3.91748046875t-0.745361328125,4.61083984375t-0.190673828125,3.726806640625q0,0.86669921875,0.294677734375,1.716064453125t0.676025390625,1.69873046875t0.676025390625,1.7333984375t0.294677734375,1.750732421875q0,0.416015625-0.364013671875,0.693359375t-0.849365234375,0.45068359375t-1.022705078125,0.225341796875t-0.814697265625,0.052001953125q-1.97607421875,0-2.73876953125-0.93603515625t-1.3173828125-2.634765625q-1.21337890625-3.84814453125-1.681396484375-7.817626953125t-0.468017578125-7.956298828125z M362.0475,113.3759765625q0-1.00537109375,0.086669921875-2.11474609375t0.156005859375-2.080078125l0.2080078125-5.2001953125q0.3466796875-6.240234375,0.849365234375-12.2724609375t0.849365234375-12.203125q0.2080078125-3.3974609375,0.31201171875-6.673583984375t0.31201171875-6.673583984375q-0.138671875-0.27734375-0.138671875-0.38134765625q0-0.4853515625,0.364013671875-0.7626953125t0.849365234375-0.468017578125t1.022705078125-0.260009765625t0.814697265625-0.0693359375l0.79736328125,0q1.07470703125,0.138671875,1.56005859375,0.676025390625t0.6240234375,1.28271484375t0.0693359375,1.5947265625t-0.0693359375,1.577392578125q0,5.02685546875-0.24267578125,10.244384765625t-0.5546875,10.4697265625t-0.572021484375,10.50439453125t-0.260009765625,10.383056640625l0,2.4267578125q0,1.62939453125-0.918701171875,2.1494140625t-2.548095703125,0.52001953125q-1.42138671875,0-2.49609375-0.6240234375t-1.07470703125-2.04541015625z M377.94865722656,102.490234375q0-2.4267578125,0.537353515625-5.72021484375t1.820068359375-6.240234375t3.380126953125-5.009521484375t5.286865234375-2.062744140625q2.9814453125,0,4.47216796875,1.716064453125t1.49072265625,4.628173828125q0,1.90673828125-0.710693359375,4.177490234375t-2.028076171875,4.298828125t-3.1201171875,3.380126953125t-4.021484375,1.35205078125l-0.9013671875-0.0693359375q0,0.93603515625,0.27734375,2.513427734375t0.814697265625,3.137451171875t1.38671875,2.73876953125t2.062744140625,1.1787109375q1.76806640625,0,3.3974609375-1.42138671875t3.08544921875-3.15478515625t2.7041015625-3.15478515625t2.2880859375-1.42138671875q0.5546875,0,1.14404296875,0.17333984375t0.65869140625,0.970703125q0,0.4853515625-0.260009765625,0.79736328125t-0.468017578125,0.693359375q-1.07470703125,1.83740234375-2.340087890625,3.50146484375t-2.860107421875,3.01611328125t-3.484130859375,2.132080078125t-4.177490234375,0.780029296875q-2.9814453125,0-4.95751953125-1.057373046875t-3.189453125-2.8427734375t-1.750732421875-4.12548828125t-0.537353515625-4.905517578125z M384.15422363281,99.85546875l0.970703125,0.86669921875q0.693359375,0.6240234375,1.38671875,0.27734375t1.248046875-1.265380859375t1.022705078125-2.270751953125t0.83203125-2.7734375t0.537353515625-2.7734375t0.17333984375-2.25341796875l0-1.1787109375t-0.10400390625-1.248046875t-0.364013671875-0.988037109375t-0.814697265625-0.502685546875q-0.17333984375-0.03466796875-0.31201171875-0.03466796875q-1.1787109375,0-2.0107421875,1.49072265625q-0.9013671875,1.6640625-1.4560546875,4.038818359375t-0.79736328125,4.870849609375t-0.31201171875,3.744140625z"/></svg>
